<svg width="20" height="19" viewBox="0 0 20 19" fill="none" xmlns="http://www.w3.org/2000/svg">
<path fill-rule="evenodd" clip-rule="evenodd" d="M10.9924 0.626465C11.9551 0.155217 12.795 -1.38455e-06 14.0979 1.44916e-05C17.4321 0.0138225 19.9 2.82586 19.9 6.40789C19.9 9.14198 18.3755 11.7831 15.536 14.3369C14.0456 15.6774 12.1426 17.004 10.7797 17.7097L9.99998 18.1135L9.22022 17.7097C7.85737 17.004 5.95438 15.6774 4.46393 14.3369C1.62442 11.7831 0.0999756 9.14198 0.0999756 6.40789C0.0999756 2.78754 2.54477 0 5.90907 0C7.16523 0 8.04816 0.169898 9.0296 0.655321C9.37131 0.824326 9.69235 1.0248 9.99095 1.25618C10.3015 1.01105 10.6359 0.800937 10.9924 0.626465Z" fill="black"/>
</svg>
